<?xml version="1.0" encoding="utf-8"?>
<!-- Generator: Adobe Illustrator 17.0.0, SVG Export Plug-In . SVG Version: 6.00 Build 0)  -->
<!DOCTYPE svg PUBLIC "-//W3C//DTD SVG 1.1//EN" "http://www.w3.org/Graphics/SVG/1.1/DTD/svg11.dtd">
<svg version="1.1" id="Layer_1" xmlns="http://www.w3.org/2000/svg" xmlns:xlink="http://www.w3.org/1999/xlink" x="0px" y="0px"
	 width="287.79px" height="256.972px" viewBox="0 0 287.79 256.972" enable-background="new 0 0 287.79 256.972"
	 xml:space="preserve">
<g>
	<g>
		
			<rect x="-26.367" y="127.193" transform="matrix(0.8076 0.5898 -0.5898 0.8076 109.1065 -58.303)" fill="#FFFFFF" width="340.526" height="21.697"/>
	</g>
	<g>
		<path fill="#FFFFFF" d="M154.107,147.007c-2.351,2.351-4.686,4.553-6.998,6.63l47.695,34.833c0.142-0.141,0.281-0.27,0.424-0.412
			c53.985-54.008,73.891-93.797,68.625-137.34c-0.597-5.42-1.951-10.84-4.106-16.528c-2.332-5.955-5.466-11.489-9.219-16.289
			l0.284-0.307L239.617,6.328c-8.224-8.218-21.351-8.463-29.239-0.552l-39.789,39.789c-7.911,7.905-7.667,21.015,0.535,29.233
			l6.62,6.62l13.44,13.422c-0.688,1.245-1.399,2.531-2.155,3.862C182.009,111.369,172.386,128.722,154.107,147.007z"/>
		<path fill="#FFFFFF" d="M129.427,167.591c-8.779,6.081-16.813,10.548-23.533,14.274c-1.377,0.774-2.69,1.507-3.953,2.195
			l-20.043-20.037c-8.195-8.201-21.305-8.446-29.233-0.557l-39.772,39.789c-7.906,7.934-7.661,21.038,0.512,29.262l11.375,11.13
			l0.244-0.222c4.778,3.754,10.311,6.888,16.221,9.197c5.511,2.133,10.931,3.486,16.573,4.152
			c2.403,0.268,54.04,5.041,120.824-53.24L129.427,167.591z"/>
	</g>
</g>
</svg>
