<?xml version="1.0" encoding="utf-8"?>
<!-- Generator: Adobe Illustrator 17.0.0, SVG Export Plug-In . SVG Version: 6.00 Build 0)  -->
<!DOCTYPE svg PUBLIC "-//W3C//DTD SVG 1.1//EN" "http://www.w3.org/Graphics/SVG/1.1/DTD/svg11.dtd">
<svg version="1.1" id="Layer_1" xmlns="http://www.w3.org/2000/svg" xmlns:xlink="http://www.w3.org/1999/xlink" x="0px" y="0px"
	 width="287.806px" height="253.105px" viewBox="0 0 287.806 253.105" enable-background="new 0 0 287.806 253.105"
	 xml:space="preserve">
<g>
	<g>
		<path fill="#BBBBBB" d="M193.306,235.549h-38.948v-20.082c19.185-2.122,35.692-9.625,49.52-22.502l-16.12-11.773
			c-12.293,10.269-26.669,15.412-43.128,15.412c-18.762,0-34.817-6.672-48.146-20c-13.343-13.329-20.001-29.384-20.001-48.146
			v-19.474c0-2.626-0.975-4.907-2.893-6.839c-1.932-1.932-4.209-2.889-6.853-2.889c-2.626,0-4.917,0.957-6.839,2.889
			c-1.929,1.932-2.889,4.213-2.889,6.839v19.474c0,22.42,7.479,41.905,22.434,58.486s33.44,26.089,55.444,28.523v20.082H95.954
			c-2.64,0-4.921,0.961-6.849,2.879c-1.932,1.932-2.893,4.213-2.893,6.853c0,2.626,0.961,4.907,2.893,6.853
			c1.928,1.918,4.209,2.875,6.849,2.875h97.352c2.626,0,4.921-0.957,6.839-2.875c1.932-1.932,2.889-4.227,2.889-6.853
			c0-2.64-0.957-4.921-2.889-6.853C198.227,236.51,195.932,235.549,193.306,235.549z"/>
		<g>
			<path fill="#BBBBBB" d="M172.52,128.764l18.813,13.739c1.275-4.331,1.933-8.909,1.959-13.739H172.52z"/>
			<path fill="#BBBBBB" d="M96.48,114.531l-0.512,14.233c0.071,13.244,4.825,24.616,14.276,34.08
				c9.536,9.536,21,14.286,34.386,14.286c9.974,0,18.873-2.641,26.706-7.931L96.48,114.531z"/>
		</g>
		<path fill="#BBBBBB" d="M121.683,63.464H95.954v6.355l17.276,12.617h8.453c3.932,0,7.117,3.185,7.117,7.117
			c0,1.297-0.353,2.508-0.959,3.554l34.393,25.118c1.208-2.202,3.543-3.693,6.233-3.693h24.84V96.669h-24.84
			c-3.932,0-7.116-3.181-7.116-7.116c0-3.932,3.185-7.117,7.116-7.117h24.84V63.464h-24.84c-3.932,0-7.116-3.181-7.116-7.116
			c0-3.932,3.185-7.116,7.116-7.116h24.783c-0.32-12.799-5.045-23.822-14.247-33.024c-9.536-9.536-20.986-14.304-34.372-14.304
			c-13.386,0-24.85,4.768-34.372,14.304c-9.216,9.201-13.927,20.225-14.247,33.024h25.672c3.932,0,7.117,3.185,7.117,7.116
			C128.8,60.283,125.615,63.464,121.683,63.464z"/>
		<path fill="#BBBBBB" d="M224.906,163.994c4.878-10.894,7.331-22.733,7.331-35.536v-19.474c0-2.626-0.957-4.907-2.875-6.839
			c-1.932-1.932-4.213-2.889-6.853-2.889s-4.921,0.957-6.839,2.889c-1.932,1.918-2.893,4.213-2.893,6.839v19.474
			c0,8.453-1.368,16.35-4.075,23.702L224.906,163.994z"/>
	</g>
	<g>
		
			<rect x="-25.648" y="115.933" transform="matrix(0.8076 0.5898 -0.5898 0.8076 102.6043 -60.9014)" fill="#BBBBBB" width="340.554" height="21.699"/>
	</g>
</g>
</svg>
