<?xml version="1.0" encoding="utf-8"?>
<!-- Generator: Adobe Illustrator 17.0.0, SVG Export Plug-In . SVG Version: 6.00 Build 0)  -->
<!DOCTYPE svg PUBLIC "-//W3C//DTD SVG 1.1//EN" "http://www.w3.org/Graphics/SVG/1.1/DTD/svg11.dtd">
<svg version="1.1" id="Layer_1" xmlns="http://www.w3.org/2000/svg" xmlns:xlink="http://www.w3.org/1999/xlink" x="0px" y="0px"
	 width="175.227px" height="253.105px" viewBox="57.01 1.904 175.227 253.105" enable-background="new 57.01 1.904 175.227 253.105"
	 xml:space="preserve">
<g>
	<path fill="#FFFFFF" d="M222.508,99.256c-2.64,0-4.921,0.957-6.839,2.889c-1.932,1.918-2.893,4.213-2.893,6.839v19.474
		c0,18.762-6.672,34.817-20.001,48.146c-13.343,13.329-29.394,20.001-48.146,20.001c-18.762,0-34.817-6.672-48.146-20.001
		c-13.343-13.329-20.001-29.384-20.001-48.146v-19.474c0-2.626-0.975-4.907-2.893-6.839c-1.932-1.932-4.209-2.889-6.853-2.889
		c-2.626,0-4.917,0.957-6.839,2.889c-1.929,1.932-2.889,4.213-2.889,6.839v19.474c0,22.42,7.479,41.905,22.434,58.486
		c14.955,16.581,33.44,26.089,55.444,28.523v20.083H95.954c-2.64,0-4.921,0.961-6.849,2.879c-1.932,1.932-2.893,4.213-2.893,6.853
		c0,2.626,0.961,4.907,2.893,6.853c1.929,1.918,4.209,2.875,6.849,2.875h97.352c2.626,0,4.921-0.957,6.839-2.875
		c1.932-1.932,2.889-4.227,2.889-6.853c0-2.64-0.957-4.921-2.889-6.853c-1.918-1.918-4.213-2.879-6.839-2.879h-38.948v-20.083
		c22.004-2.434,40.489-11.941,55.444-28.523c14.959-16.581,22.434-36.066,22.434-58.486v-19.474c0-2.626-0.957-4.907-2.875-6.839
		C227.429,100.213,225.148,99.256,222.508,99.256L222.508,99.256z M222.508,99.256"/>
	<path fill="#FFFFFF" d="M121.683,96.669H95.954v17.862h25.729c3.932,0,7.117,3.181,7.117,7.116c0,3.932-3.185,7.116-7.117,7.116
		H95.968c0.071,13.244,4.825,24.616,14.275,34.08c9.536,9.536,21.001,14.286,34.386,14.286c13.386,0,24.836-4.75,34.372-14.286
		c9.451-9.465,14.219-20.837,14.29-34.08h-24.826c-3.932,0-7.116-3.185-7.116-7.116c0-3.935,3.185-7.116,7.116-7.116h24.84V96.669
		h-24.84c-3.932,0-7.116-3.181-7.116-7.116c0-3.932,3.185-7.117,7.116-7.117h24.84V63.464h-24.84c-3.932,0-7.116-3.181-7.116-7.116
		c0-3.932,3.185-7.116,7.116-7.116h24.783c-0.32-12.799-5.046-23.822-14.247-33.024c-9.536-9.536-20.986-14.304-34.372-14.304
		c-13.386,0-24.85,4.768-34.372,14.304c-9.216,9.201-13.927,20.225-14.247,33.024h25.672c3.932,0,7.117,3.185,7.117,7.116
		c0,3.935-3.185,7.116-7.117,7.116H95.954v18.972h25.729c3.932,0,7.117,3.185,7.117,7.117
		C128.8,93.488,125.615,96.669,121.683,96.669L121.683,96.669z M121.683,96.669"/>
</g>
</svg>
